<svg id="visual" viewBox="0 0 900 600" width="900" height="600" xmlns="http://www.w3.org/2000/svg" xmlns:xlink="http://www.w3.org/1999/xlink" version="1.1"><rect x="0" y="0" width="900" height="600" fill="#001220"></rect><defs><linearGradient id="grad1_0" x1="33.3%" y1="100%" x2="100%" y2="0%"><stop offset="20%" stop-color="#001220" stop-opacity="1"></stop><stop offset="80%" stop-color="#001220" stop-opacity="1"></stop></linearGradient></defs><defs><linearGradient id="grad2_0" x1="0%" y1="100%" x2="66.7%" y2="0%"><stop offset="20%" stop-color="#001220" stop-opacity="1"></stop><stop offset="80%" stop-color="#001220" stop-opacity="1"></stop></linearGradient></defs><g transform="translate(900, 600)"><path d="M-486.7 0C-480.1 -69.6 -473.5 -139.2 -433.3 -179.5C-393.1 -219.7 -319.4 -230.6 -277.9 -277.9C-236.4 -325.2 -227.2 -408.8 -186.3 -449.7C-145.3 -490.6 -72.7 -488.7 0 -486.7L0 0Z" fill="#FBAE3C"></path></g><g transform="translate(0, 0)"><path d="M486.7 0C463 57.1 439.3 114.3 418.5 173.4C397.8 232.4 380 293.4 342.2 342.2C304.5 391 246.6 427.6 186.3 449.7C125.9 471.7 62.9 479.2 0 486.7L0 0Z" fill="#FBAE3C"></path></g></svg>