<svg id="visual" viewBox="0 0 900 600" width="900" height="600" xmlns="http://www.w3.org/2000/svg" xmlns:xlink="http://www.w3.org/1999/xlink" version="1.1"><rect x="0" y="0" width="900" height="600" fill="#002233"></rect><path d="M0 380L21.5 382.3C43 384.7 86 389.3 128.8 401C171.7 412.7 214.3 431.3 257.2 438.2C300 445 343 440 385.8 434.7C428.7 429.3 471.3 423.7 514.2 437.8C557 452 600 486 642.8 485.8C685.7 485.7 728.3 451.3 771.2 432.8C814 414.3 857 411.7 878.5 410.3L900 409L900 601L878.5 601C857 601 814 601 771.2 601C728.3 601 685.7 601 642.8 601C600 601 557 601 514.2 601C471.3 601 428.7 601 385.8 601C343 601 300 601 257.2 601C214.3 601 171.7 601 128.8 601C86 601 43 601 21.5 601L0 601Z" fill="#0066FF" stroke-linecap="round" stroke-linejoin="miter"></path></svg>